<!DOCTYPE svg PUBLIC "-//W3C//DTD SVG 1.1//EN" "http://www.w3.org/Graphics/SVG/1.1/DTD/svg11.dtd">
<!-- Uploaded to: SVG Repo, www.svgrepo.com, Transformed by: SVG Repo Mixer Tools -->
<svg fill="#FFF" version="1.1" id="Layer_1" xmlns="http://www.w3.org/2000/svg" xmlns:xlink="http://www.w3.org/1999/xlink" width="800px" height="800px" viewBox="0 0 256 234" enable-background="new 0 0 256 234" xml:space="preserve" stroke="#FFF">
<g id="SVGRepo_bgCarrier" stroke-width="0"/>
<g id="SVGRepo_tracerCarrier" stroke-linecap="round" stroke-linejoin="round"/>
<g id="SVGRepo_iconCarrier"> <path d="M138.734,150.76l34.588,14.506c5.033,2.22,8.339,7.253,8.388,12.73l-1.628,53.535h-54.275c0,0-19.588-32.072-21.365-34.341 c-1.184-1.678-1.579-4.835-1.579-4.835c-0.592-2.813-0.641-29.555-0.641-29.555c0-4.441,3.75-8.141,8.141-8.141 c4.441,0,8.141,3.75,8.141,8.141v19.292c0,1.086,0.839,1.974,1.974,1.974c0.247,0,0.543-0.049,0.74-0.148 c0.691-0.345,1.234-1.036,1.234-1.875v-65.179c0.247-3.997,3.75-7.302,7.944-7.302h0.197c4.638,0,8.141,3.75,8.141,8.141V150.76z M59.149,94.359L37.023,69.428l37.966-33.983l-10.266-9.38L2.105,82.113l9.52,10.727l9.654-8.716v61.292h42.143V90.502 L59.149,94.359z M198.878,71.046l-33.227-30.245V5.704h-19.345V23.01L123.825,2.469L48.294,70.076l11.483,12.939l11.645-10.513 v72.915h43.029v-28.554v-0.247l0.015-0.246c0.513-8.304,7.509-14.81,15.929-14.81h0.197c8.9,0,16.141,7.241,16.141,16.141 l0.027,27.711l28.902,0.03l-0.027-72.294l11.458,10.513L198.878,71.046z M226.349,57.843V28.746h-16.038v14.347l-18.638-17.029 l-15.291,13.687l33.874,30.834l-22.73,24.332l-3.891-3.57v54.07h50.991V84.661l9.499,8.716l9.77-10.459L226.349,57.843z"/> </g>
</svg>