<!DOCTYPE svg PUBLIC "-//W3C//DTD SVG 1.1//EN" "http://www.w3.org/Graphics/SVG/1.1/DTD/svg11.dtd">
<!-- Uploaded to: SVG Repo, www.svgrepo.com, Transformed by: SVG Repo Mixer Tools -->
<svg fill="#1e8a39" height="800px" width="800px" version="1.1" id="Layer_1" xmlns="http://www.w3.org/2000/svg" xmlns:xlink="http://www.w3.org/1999/xlink" viewBox="0 0 512.001 512.001" xml:space="preserve">
<g id="SVGRepo_bgCarrier" stroke-width="0"/>
<g id="SVGRepo_tracerCarrier" stroke-linecap="round" stroke-linejoin="round"/>
<g id="SVGRepo_iconCarrier"> <g> <g> <path d="M511.215,81.767c-1.391-3.021-4.412-4.966-7.748-4.966H433.51l75.358-61.662c2.79-2.287,3.849-6.076,2.637-9.472 c-1.212-3.396-4.429-5.666-8.038-5.666H392.533c-2.85,0-5.513,1.425-7.1,3.797l-85.333,128c-1.741,2.62-1.911,5.982-0.427,8.755 c1.485,2.773,4.378,4.514,7.526,4.514h81.263l-27.307,68.267h-71.023v-51.2c0-4.71-3.814-8.533-8.533-8.533h-51.2V8.534 c0-4.71-3.814-8.533-8.533-8.533s-8.533,3.823-8.533,8.533v145.067h-51.2c-4.719,0-8.533,3.823-8.533,8.533v51.2H8.533 c-4.719,0-8.533,3.823-8.533,8.533c0,4.71,3.814,8.533,8.533,8.533H153.6v51.2c0,4.71,3.814,8.533,8.533,8.533h51.2v145.067 c0,4.71,3.814,8.533,8.533,8.533s8.533-3.823,8.533-8.533V290.134h51.2c4.719,0,8.533-3.823,8.533-8.533v-51.2h64.196 l-12.39,30.959c-1.553,3.883-0.068,8.311,3.507,10.47c1.365,0.828,2.901,1.237,4.412,1.237c2.424,0,4.813-1.033,6.485-2.978 l153.6-179.2C512.119,88.363,512.614,84.796,511.215,81.767z"/> </g> </g> <g> <g> <path d="M503.467,290.134H315.733c-4.719,0-8.533,3.823-8.533,8.533v204.8c0,4.71,3.814,8.533,8.533,8.533h187.733 c4.719,0,8.533-3.823,8.533-8.533v-204.8C512,293.957,508.186,290.134,503.467,290.134z M366.933,460.801h-17.067 c-4.719,0-8.533-3.823-8.533-8.533c0-4.71,3.814-8.533,8.533-8.533h17.067c4.719,0,8.533,3.823,8.533,8.533 C375.467,456.978,371.652,460.801,366.933,460.801z M366.933,409.601h-17.067c-4.719,0-8.533-3.823-8.533-8.533 s3.814-8.533,8.533-8.533h17.067c4.719,0,8.533,3.823,8.533,8.533S371.652,409.601,366.933,409.601z M366.933,358.401h-17.067 c-4.719,0-8.533-3.823-8.533-8.533s3.814-8.533,8.533-8.533h17.067c4.719,0,8.533,3.823,8.533,8.533 S371.652,358.401,366.933,358.401z M469.333,460.801h-51.2c-4.719,0-8.533-3.823-8.533-8.533c0-4.71,3.814-8.533,8.533-8.533h51.2 c4.719,0,8.533,3.823,8.533,8.533C477.867,456.978,474.052,460.801,469.333,460.801z M469.333,409.601h-51.2 c-4.719,0-8.533-3.823-8.533-8.533s3.814-8.533,8.533-8.533h51.2c4.719,0,8.533,3.823,8.533,8.533 S474.052,409.601,469.333,409.601z M469.333,358.401h-51.2c-4.719,0-8.533-3.823-8.533-8.533s3.814-8.533,8.533-8.533h51.2 c4.719,0,8.533,3.823,8.533,8.533S474.052,358.401,469.333,358.401z"/> </g> </g> </g>
</svg>