<?xml version="1.0" encoding="UTF-8"?><svg id="a" xmlns="http://www.w3.org/2000/svg" viewBox="0 0 135 40"><defs><style>.b{fill:#fbbc04;}.c{fill:#ea4335;}.d,.e{fill:#fff;}.f{fill:#a6a6a6;}.g{fill:#4285f4;}.h{fill:#34a853;}.e{stroke:#fff;stroke-miterlimit:10;stroke-width:.2px;}</style></defs><rect width="135" height="40" rx="5" ry="5"/><path class="f" d="m130,.8c2.32,0,4.2,1.88,4.2,4.2v30c0,2.32-1.88,4.2-4.2,4.2H5c-2.32,0-4.2-1.88-4.2-4.2V5C.8,2.68,2.68.8,5,.8h125M130,0H5C2.25,0,0,2.25,0,5v30c0,2.75,2.25,5,5,5h125c2.75,0,5-2.25,5-5V5C135,2.25,132.75,0,130,0h0Z"/><g><path class="e" d="m45.98,12.75c-.33.12-.97.31-1.73.31-.85,0-1.56-.22-2.11-.75-.49-.47-.79-1.22-.79-2.1,0-1.68,1.16-2.92,3.06-2.92.65,0,1.16.14,1.41.26l-.18.59c-.3-.13-.68-.24-1.25-.24-1.37,0-2.27.85-2.27,2.27s.86,2.28,2.18,2.28c.48,0,.8-.07.97-.15v-1.68h-1.15v-.59h1.86v2.71Z"/><path class="e" d="m50.18,10.35h-2.2v2.04h2.45v.61h-3.17v-5.65h3.05v.61h-2.32v1.78h2.2v.6Z"/><path class="e" d="m52.76,7.97h-1.72v-.62h4.18v.62h-1.73v5.03h-.74v-5.03Z"/><path class="e" d="m58.69,7.35v5.65h-.73v-5.65h.73Z"/><path class="e" d="m61.2,7.97h-1.72v-.62h4.18v.62h-1.73v5.03h-.74v-5.03Z"/><path class="e" d="m71.23,10.12c0,1.94-1.18,2.97-2.62,2.97s-2.54-1.16-2.54-2.86c0-1.79,1.11-2.97,2.62-2.97s2.54,1.18,2.54,2.86Zm-4.38.09c0,1.21.65,2.29,1.8,2.29s1.81-1.06,1.81-2.35c0-1.12-.59-2.3-1.8-2.3s-1.81,1.11-1.81,2.35Z"/><path class="e" d="m72.35,13v-5.65h.8l1.81,2.86c.42.66.75,1.26,1.01,1.83h.02c-.07-.76-.08-1.45-.08-2.33v-2.36h.69v5.65h-.74l-1.79-2.87c-.39-.63-.77-1.27-1.06-1.88h-.03c.04.72.06,1.4.06,2.34v2.41h-.69Z"/></g><path class="d" d="m68.14,21.75c-2.35,0-4.27,1.79-4.27,4.25s1.92,4.25,4.27,4.25,4.27-1.8,4.27-4.25-1.92-4.25-4.27-4.25Zm0,6.83c-1.29,0-2.4-1.06-2.4-2.58s1.11-2.58,2.4-2.58,2.4,1.05,2.4,2.58-1.11,2.58-2.4,2.58Zm-9.31-6.83c-2.35,0-4.27,1.79-4.27,4.25s1.92,4.25,4.27,4.25,4.27-1.8,4.27-4.25-1.92-4.25-4.27-4.25Zm0,6.83c-1.29,0-2.4-1.06-2.4-2.58s1.11-2.58,2.4-2.58,2.4,1.05,2.4,2.58-1.11,2.58-2.4,2.58Zm-11.08-5.53v1.8h4.32c-.13,1.01-.47,1.76-.98,2.27-.63.63-1.61,1.32-3.33,1.32-2.66,0-4.74-2.14-4.74-4.8s2.08-4.8,4.74-4.8c1.43,0,2.48.56,3.25,1.29l1.27-1.27c-1.08-1.03-2.51-1.82-4.53-1.82-3.64,0-6.7,2.96-6.7,6.61s3.06,6.61,6.7,6.61c1.97,0,3.45-.64,4.61-1.85,1.19-1.19,1.56-2.87,1.56-4.22,0-.42-.03-.81-.1-1.13h-6.07Zm45.31,1.4c-.35-.95-1.43-2.71-3.64-2.71s-4.01,1.72-4.01,4.25c0,2.38,1.8,4.25,4.22,4.25,1.95,0,3.08-1.19,3.54-1.88l-1.45-.97c-.48.71-1.14,1.18-2.09,1.18s-1.63-.43-2.06-1.29l5.69-2.35-.19-.48Zm-5.8,1.42c-.05-1.64,1.27-2.48,2.22-2.48.74,0,1.37.37,1.58.9l-3.8,1.58Zm-4.62,4.12h1.87v-12.5h-1.87v12.5Zm-3.06-7.3h-.06c-.42-.5-1.22-.95-2.24-.95-2.13,0-4.08,1.87-4.08,4.27s1.95,4.24,4.08,4.24c1.01,0,1.82-.45,2.24-.97h.06v.61c0,1.63-.87,2.5-2.27,2.5-1.14,0-1.85-.82-2.14-1.51l-1.63.68c.47,1.13,1.71,2.51,3.77,2.51,2.19,0,4.04-1.29,4.04-4.43v-7.64h-1.77v.69Zm-2.14,5.88c-1.29,0-2.37-1.08-2.37-2.56s1.08-2.59,2.37-2.59,2.27,1.1,2.27,2.59-1,2.56-2.27,2.56Zm24.38-11.08h-4.47v12.5h1.87v-4.74h2.61c2.07,0,4.1-1.5,4.1-3.88s-2.03-3.88-4.1-3.88Zm.05,6.03h-2.65v-4.29h2.65c1.4,0,2.19,1.16,2.19,2.14s-.79,2.14-2.19,2.14Zm11.53-1.8c-1.35,0-2.75.6-3.33,1.91l1.66.69c.35-.69,1.01-.92,1.7-.92.96,0,1.95.58,1.96,1.61v.13c-.34-.19-1.06-.48-1.95-.48-1.79,0-3.6.98-3.6,2.81,0,1.67,1.46,2.75,3.1,2.75,1.25,0,1.95-.56,2.38-1.22h.06v.96h1.8v-4.79c0-2.22-1.66-3.46-3.8-3.46Zm-.23,6.85c-.61,0-1.46-.31-1.46-1.06,0-.96,1.06-1.33,1.98-1.33.82,0,1.21.18,1.7.42-.14,1.16-1.14,1.98-2.22,1.98Zm10.58-6.58l-2.14,5.42h-.06l-2.22-5.42h-2.01l3.33,7.58-1.9,4.21h1.95l5.13-11.79h-2.07Zm-16.81,8h1.87v-12.5h-1.87v12.5Z"/><g><path class="c" d="m20.72,19.42l-10.65,11.3s0,0,0,0c.33,1.23,1.45,2.13,2.78,2.13.53,0,1.03-.14,1.46-.4l.03-.02,11.98-6.91-5.61-6.11Z"/><path class="b" d="m31.49,17.5h-.01s-5.17-3.01-5.17-3.01l-5.83,5.19,5.85,5.85,5.15-2.97c.9-.49,1.51-1.44,1.51-2.53s-.6-2.04-1.5-2.52Z"/><path class="g" d="m10.07,9.28c-.06.24-.1.48-.1.74v19.97c0,.26.03.5.1.74l11.01-11.01-11.01-10.44Z"/><path class="h" d="m20.8,20l5.51-5.51-11.97-6.94c-.43-.26-.94-.41-1.49-.41-1.33,0-2.45.91-2.78,2.13,0,0,0,0,0,0l10.73,10.72Z"/></g></svg>