<!DOCTYPE svg PUBLIC "-//W3C//DTD SVG 1.1//EN" "http://www.w3.org/Graphics/SVG/1.1/DTD/svg11.dtd">
<!-- Uploaded to: SVG Repo, www.svgrepo.com, Transformed by: SVG Repo Mixer Tools -->
<svg height="800px" width="800px" version="1.1" id="Layer_1" xmlns="http://www.w3.org/2000/svg" xmlns:xlink="http://www.w3.org/1999/xlink" viewBox="-10.24 -10.24 532.48 532.48" xml:space="preserve" fill="#FFF" stroke="#FFF" stroke-width="17.408">
<g id="SVGRepo_bgCarrier" stroke-width="0"/>
<g id="SVGRepo_tracerCarrier" stroke-linecap="round" stroke-linejoin="round"/>
<g id="SVGRepo_iconCarrier"> <polygon style="fill:#107039FF;" points="58,397.144 58,114.856 256,9.064 454,114.856 454,397.144 256,502.928 "/> <path style="fill:#FFFFF;" d="M256,18.144l190,101.512V392.36L256,493.856L66,392.352V119.648L256,18.144 M256,0L50,110.056 v291.888L256,512l206-110.056V110.056L256,0L256,0z"/> <polygon style="fill:#FFF;" points="333.512,372.008 256.016,313.448 178.504,372.008 208.112,277.256 130.896,218.952 226.32,218.952 256.008,123.992 285.688,218.952 381.104,218.952 303.904,277.256 "/> </g>
</svg>